<?xml version="1.0"?>
<svg xmlns="http://www.w3.org/2000/svg" id="Layer_1" data-name="Layer 1" viewBox="0 0 512 512" width="512px" height="512px"><g><title class="active-path" style="fill:#000000">pin 02</title><path d="M324.416,280.805l79.127-79.424a7,7,0,0,0,0-9.881c-22.119-22.2-47.565-35.512-75.632-39.559-24.031-3.465-50.054-.145-77.436,9.869L181.891,53.055c-8.967-14.193-22.15-22.919-37.119-24.573-15.107-1.668-30.048,4.051-42.061,16.109L35.317,112.238C23.3,124.3,17.605,139.3,19.282,154.461c1.659,14.991,10.349,28.2,24.473,37.187L152.117,260.5c-10.068,27.66-13.548,53.93-10.342,78.157,3.785,28.607,16.88,54.328,38.921,76.453a7,7,0,0,0,9.918,0l79.118-79.414,211.94,166.741A7,7,0,0,0,491.5,492.6ZM185.772,400.133c-34.03-37.574-40.284-84.612-18.576-139.932a7,7,0,0,0-2.762-8.465l-113.166-71.9C40.8,173.171,34.38,163.612,33.2,152.921c-1.2-10.864,3.074-21.8,12.038-30.8l67.394-67.647c7.965-7.994,17.454-12.27,27.056-12.27a32.48,32.48,0,0,1,3.549.2c10.651,1.177,20.175,7.618,26.818,18.131l71.637,113.6a7,7,0,0,0,8.5,2.775c54.231-21.441,100.757-14.822,138.407,19.655Zm93.91-74.426,34.781-34.913,129.512,164.17Z" data-original="#000000" class="active-path" fill="#f873a3"/></g> </svg>
